<mxfile host="app.diagrams.net" modified="2021-11-17T23:58:11.437Z" agent="5.0 (Windows NT 10.0; Win64; x64) AppleWebKit/537.36 (KHTML, like Gecko) Chrome/95.0.4638.69 Safari/537.36" etag="sFwsqaFVBP-9B2F8ztUW" version="15.5.2" type="github">
  <diagram id="Hh0N9NxtzZ-wYTXWdKlL" name="Page-1">
    <mxGraphModel dx="1422" dy="762" grid="1" gridSize="10" guides="1" tooltips="1" connect="1" arrows="1" fold="1" page="1" pageScale="1" pageWidth="291" pageHeight="413" math="0" shadow="0">
      <root>
        <mxCell id="0" />
        <mxCell id="1" parent="0" />
        <mxCell id="f2MJF14lrPQRE9OXnsbV-1" value="&lt;span style=&quot;background-color: rgb(255 , 255 , 255)&quot;&gt;аптат&lt;font color=&quot;#001933&quot;&gt;Откроите преложение&amp;nbsp;&lt;/font&gt;&lt;/span&gt;" style="rounded=0;whiteSpace=wrap;html=1;labelBackgroundColor=#001933;fontColor=#FFFFFF;" parent="1" vertex="1">
          <mxGeometry x="840" y="140" width="300" height="50" as="geometry" />
        </mxCell>
        <mxCell id="f2MJF14lrPQRE9OXnsbV-2" value="Заказать еду из любои ресторан (доступныин в App)" style="rounded=0;whiteSpace=wrap;html=1;labelBackgroundColor=#FFFFFF;fontColor=#001933;" parent="1" vertex="1">
          <mxGeometry x="840" y="230" width="240" height="50" as="geometry" />
        </mxCell>
        <mxCell id="f2MJF14lrPQRE9OXnsbV-3" value="оплатить заказ ( банковскои карта" style="rounded=0;whiteSpace=wrap;html=1;labelBackgroundColor=#FFFFFF;fontColor=#001933;" parent="1" vertex="1">
          <mxGeometry x="840" y="300" width="250" height="50" as="geometry" />
        </mxCell>
        <mxCell id="f2MJF14lrPQRE9OXnsbV-4" value="получить заказ" style="rounded=0;whiteSpace=wrap;html=1;labelBackgroundColor=#FFFFFF;fontColor=#001933;" parent="1" vertex="1">
          <mxGeometry x="840" y="380" width="210" height="40" as="geometry" />
        </mxCell>
        <mxCell id="f2MJF14lrPQRE9OXnsbV-5" value="принять заказ через App" style="rounded=0;whiteSpace=wrap;html=1;labelBackgroundColor=#FFFFFF;fontColor=#001933;" parent="1" vertex="1">
          <mxGeometry x="750" y="520" width="240" height="60" as="geometry" />
        </mxCell>
        <mxCell id="f2MJF14lrPQRE9OXnsbV-6" value="едет в аддрес клиент и отдат заказ&amp;nbsp;" style="rounded=0;whiteSpace=wrap;html=1;labelBackgroundColor=#FFFFFF;fontColor=#001933;" parent="1" vertex="1">
          <mxGeometry x="750" y="770" width="350" height="60" as="geometry" />
        </mxCell>
        <mxCell id="f2MJF14lrPQRE9OXnsbV-7" style="rounded=0;orthogonalLoop=1;jettySize=auto;html=1;exitX=1;exitY=0.3333333333333333;exitDx=0;exitDy=0;entryX=0;entryY=0.5;entryDx=0;entryDy=0;fontColor=#001933;exitPerimeter=0;" parent="1" source="f2MJF14lrPQRE9OXnsbV-23" target="f2MJF14lrPQRE9OXnsbV-5" edge="1">
          <mxGeometry relative="1" as="geometry">
            <mxPoint x="490" y="480" as="sourcePoint" />
          </mxGeometry>
        </mxCell>
        <mxCell id="f2MJF14lrPQRE9OXnsbV-8" value="едет в ресторан и получить заказ" style="rounded=0;whiteSpace=wrap;html=1;labelBackgroundColor=#FFFFFF;fontColor=#001933;" parent="1" vertex="1">
          <mxGeometry x="760" y="645" width="280" height="60" as="geometry" />
        </mxCell>
        <mxCell id="f2MJF14lrPQRE9OXnsbV-9" style="rounded=0;orthogonalLoop=1;jettySize=auto;html=1;exitX=1;exitY=0.3333333333333333;exitDx=0;exitDy=0;fontColor=#001933;exitPerimeter=0;" parent="1" source="f2MJF14lrPQRE9OXnsbV-20" target="f2MJF14lrPQRE9OXnsbV-1" edge="1">
          <mxGeometry relative="1" as="geometry">
            <mxPoint x="495" y="150" as="sourcePoint" />
          </mxGeometry>
        </mxCell>
        <mxCell id="f2MJF14lrPQRE9OXnsbV-10" style="rounded=0;orthogonalLoop=1;jettySize=auto;html=1;exitX=1;exitY=0.3333333333333333;exitDx=0;exitDy=0;entryX=0;entryY=0.5;entryDx=0;entryDy=0;fontColor=#001933;exitPerimeter=0;" parent="1" source="f2MJF14lrPQRE9OXnsbV-20" target="f2MJF14lrPQRE9OXnsbV-2" edge="1">
          <mxGeometry relative="1" as="geometry">
            <mxPoint x="620" y="212.5" as="sourcePoint" />
          </mxGeometry>
        </mxCell>
        <mxCell id="f2MJF14lrPQRE9OXnsbV-11" style="rounded=0;orthogonalLoop=1;jettySize=auto;html=1;entryX=0;entryY=0.5;entryDx=0;entryDy=0;fontColor=#001933;" parent="1" target="f2MJF14lrPQRE9OXnsbV-3" edge="1">
          <mxGeometry relative="1" as="geometry">
            <mxPoint x="350" y="250" as="sourcePoint" />
          </mxGeometry>
        </mxCell>
        <mxCell id="f2MJF14lrPQRE9OXnsbV-12" style="rounded=0;orthogonalLoop=1;jettySize=auto;html=1;entryX=0;entryY=0.5;entryDx=0;entryDy=0;fontColor=#001933;" parent="1" target="f2MJF14lrPQRE9OXnsbV-4" edge="1">
          <mxGeometry relative="1" as="geometry">
            <mxPoint x="360" y="250" as="sourcePoint" />
          </mxGeometry>
        </mxCell>
        <mxCell id="f2MJF14lrPQRE9OXnsbV-13" value="принят заказ&amp;nbsp;" style="rounded=0;whiteSpace=wrap;html=1;labelBackgroundColor=#FFFFFF;fontColor=#001933;" parent="1" vertex="1">
          <mxGeometry x="750" y="970" width="310" height="60" as="geometry" />
        </mxCell>
        <mxCell id="f2MJF14lrPQRE9OXnsbV-14" value="приготовить заказ" style="rounded=0;whiteSpace=wrap;html=1;labelBackgroundColor=#FFFFFF;fontColor=#001933;" parent="1" vertex="1">
          <mxGeometry x="750" y="1050" width="350" height="60" as="geometry" />
        </mxCell>
        <mxCell id="f2MJF14lrPQRE9OXnsbV-15" value="проверка заказ" style="rounded=0;whiteSpace=wrap;html=1;labelBackgroundColor=#FFFFFF;fontColor=#001933;" parent="1" vertex="1">
          <mxGeometry x="750" y="1133" width="330" height="60" as="geometry" />
        </mxCell>
        <mxCell id="f2MJF14lrPQRE9OXnsbV-20" value="Klient" style="shape=umlActor;verticalLabelPosition=bottom;verticalAlign=top;html=1;outlineConnect=0;" parent="1" vertex="1">
          <mxGeometry x="230" y="200" width="110" height="140" as="geometry" />
        </mxCell>
        <mxCell id="f2MJF14lrPQRE9OXnsbV-21" style="edgeStyle=none;rounded=0;orthogonalLoop=1;jettySize=auto;html=1;exitX=1;exitY=0.3333333333333333;exitDx=0;exitDy=0;exitPerimeter=0;entryX=0;entryY=0.5;entryDx=0;entryDy=0;" parent="1" source="f2MJF14lrPQRE9OXnsbV-23" target="f2MJF14lrPQRE9OXnsbV-8" edge="1">
          <mxGeometry relative="1" as="geometry" />
        </mxCell>
        <mxCell id="f2MJF14lrPQRE9OXnsbV-22" style="edgeStyle=none;rounded=0;orthogonalLoop=1;jettySize=auto;html=1;exitX=1;exitY=0.3333333333333333;exitDx=0;exitDy=0;exitPerimeter=0;entryX=0;entryY=0.5;entryDx=0;entryDy=0;" parent="1" source="f2MJF14lrPQRE9OXnsbV-23" target="f2MJF14lrPQRE9OXnsbV-6" edge="1">
          <mxGeometry relative="1" as="geometry" />
        </mxCell>
        <mxCell id="f2MJF14lrPQRE9OXnsbV-23" value="kourier" style="shape=umlActor;verticalLabelPosition=bottom;verticalAlign=top;html=1;outlineConnect=0;" parent="1" vertex="1">
          <mxGeometry x="190" y="580" width="130" height="190" as="geometry" />
        </mxCell>
        <mxCell id="f2MJF14lrPQRE9OXnsbV-24" style="edgeStyle=none;rounded=0;orthogonalLoop=1;jettySize=auto;html=1;entryX=0;entryY=0.5;entryDx=0;entryDy=0;exitX=1;exitY=0.3333333333333333;exitDx=0;exitDy=0;exitPerimeter=0;" parent="1" source="f2MJF14lrPQRE9OXnsbV-27" target="f2MJF14lrPQRE9OXnsbV-13" edge="1">
          <mxGeometry relative="1" as="geometry">
            <mxPoint x="260" y="1020" as="sourcePoint" />
          </mxGeometry>
        </mxCell>
        <mxCell id="f2MJF14lrPQRE9OXnsbV-25" style="edgeStyle=none;rounded=0;orthogonalLoop=1;jettySize=auto;html=1;entryX=0;entryY=0.5;entryDx=0;entryDy=0;exitX=1;exitY=0.3333333333333333;exitDx=0;exitDy=0;exitPerimeter=0;" parent="1" source="f2MJF14lrPQRE9OXnsbV-27" target="f2MJF14lrPQRE9OXnsbV-14" edge="1">
          <mxGeometry relative="1" as="geometry">
            <mxPoint x="260" y="1010" as="sourcePoint" />
          </mxGeometry>
        </mxCell>
        <mxCell id="f2MJF14lrPQRE9OXnsbV-26" style="edgeStyle=none;rounded=0;orthogonalLoop=1;jettySize=auto;html=1;entryX=0;entryY=0.5;entryDx=0;entryDy=0;" parent="1" target="f2MJF14lrPQRE9OXnsbV-15" edge="1">
          <mxGeometry relative="1" as="geometry">
            <mxPoint x="270" y="1000" as="sourcePoint" />
          </mxGeometry>
        </mxCell>
        <mxCell id="f2MJF14lrPQRE9OXnsbV-27" value="" style="shape=umlActor;verticalLabelPosition=bottom;verticalAlign=top;html=1;outlineConnect=0;" parent="1" vertex="1">
          <mxGeometry x="160" y="950" width="100" height="160" as="geometry" />
        </mxCell>
        <mxCell id="f2MJF14lrPQRE9OXnsbV-33" value="restaurant&amp;nbsp; manager" style="text;html=1;align=center;verticalAlign=middle;resizable=0;points=[];autosize=1;strokeColor=none;fillColor=none;" parent="1" vertex="1">
          <mxGeometry x="160" y="1120" width="120" height="20" as="geometry" />
        </mxCell>
        <mxCell id="1WdXxsbukSl_BHoBgtRZ-3" value="" style="endArrow=classic;html=1;rounded=0;" edge="1" parent="1">
          <mxGeometry width="50" height="50" relative="1" as="geometry">
            <mxPoint x="280" y="1010" as="sourcePoint" />
            <mxPoint x="749.999230769231" y="1260" as="targetPoint" />
          </mxGeometry>
        </mxCell>
        <mxCell id="1WdXxsbukSl_BHoBgtRZ-5" value="сборка заказ" style="rounded=0;whiteSpace=wrap;html=1;" vertex="1" parent="1">
          <mxGeometry x="755" y="1220" width="320" height="60" as="geometry" />
        </mxCell>
      </root>
    </mxGraphModel>
  </diagram>
</mxfile>
